<svg id="Layer_1" data-name="Layer 1" xmlns="http://www.w3.org/2000/svg" viewBox="0 0 75 28"><defs><style>.cls-1{fill:#4f4e4c;}.cls-2{fill:#d90b2d;}.cls-3{fill:#4f4f4e;}.cls-4{fill:#504f4d;}.cls-5{fill:#da0c2e;}.cls-6{fill:#4f4f4d;}.cls-7{fill:#da0c2d;}.cls-8{fill:#50504e;}.cls-9{fill:#0a0a0a;}.cls-10{fill:#070707;}.cls-11{fill:#090909;}.cls-12{fill:#060606;}.cls-13{fill:#0c0c0c;}.cls-14{fill:#0e0e0e;}.cls-15{fill:#080808;}.cls-16{fill:#040404;}.cls-17{fill:#e4e4e4;}</style></defs><title>logo</title><path class="cls-1" d="M6.75,22.08c.35-1,.69-1.92,1-2.87,1.26-3.3,2.58-6.57,4.08-9.78.29-.62.62-1.23.92-1.85a.33.33,0,0,1,.35-.21l5.11.14,1.3,0c.17,0,.23,0,.28.22a13.14,13.14,0,0,1,.49,4.46,12,12,0,0,1-1.17,4.64,11,11,0,0,1-2.36,3.42A9.69,9.69,0,0,1,11.47,23,8.68,8.68,0,0,1,6.75,22.08Z"/><path class="cls-2" d="M.82,11.92c.42.41.81.8,1.21,1.17a1.74,1.74,0,0,0,.38.29A.39.39,0,0,0,3,13a1.52,1.52,0,0,0-.26-.95c-.27-.42-.57-.83-.83-1.25A4.52,4.52,0,0,1,1.49,10a1.09,1.09,0,0,1,.29-1.2,3.69,3.69,0,0,1,1.74-.93,15.17,15.17,0,0,1,2.74-.5,29.38,29.38,0,0,1,4.09-.12c.25,0,.5,0,.81,0l-4.76,11H6.34a7.25,7.25,0,0,0-.12-1.74l-.09,0a4.34,4.34,0,0,0-.28.62c-.22.72-.43,1.45-.62,2.18-.13.5-.24,1-.37,1.56A12.1,12.1,0,0,1,.82,11.92Z"/><path class="cls-3" d="M63,13.29a.86.86,0,0,1,.67,1c0,.5,0,1,0,1.51a1.4,1.4,0,0,1-1.47,1.49c-.94,0-1.87,0-2.8,0-.19,0-.25-.1-.25-.27V9.64c0-.36,0-.37.36-.37H62a3.08,3.08,0,0,1,.53,0,1.32,1.32,0,0,1,1.16,1.3c0,.64,0,1.28,0,1.92C63.69,13,63.39,13.15,63,13.29Zm-2.45-.76h1.27a.39.39,0,0,0,.42-.41c0-.33,0-.67,0-1,0-.18-.08-.37-.28-.38-.47,0-.94,0-1.41,0Zm0,3.3h1.36a.32.32,0,0,0,.32-.35,9.19,9.19,0,0,0,0-1.05.32.32,0,0,0-.32-.36H60.58Z"/><path class="cls-4" d="M2.06,6.15A10.89,10.89,0,0,1,3.54,3.76a.3.3,0,0,1,.21-.07H17.59a.29.29,0,0,1,.21.08c.34.48.67,1,1.05,1.52H13.51c-.94,0-1.88,0-2.82,0-1.75.07-3.5.14-5.24.29C4.31,5.71,3.19,6,2.06,6.15Z"/><path class="cls-5" d="M40.64,12.53h1.44V9.6c0-.31,0-.33.34-.33h.94c.18,0,.27.06.27.26q0,3.75,0,7.52c0,.18-.08.25-.25.25-.33,0-.66,0-1,0s-.31-.09-.31-.32c0-1,0-1.92,0-2.9H40.64V17c0,.23-.07.33-.3.32s-.64,0-1,0-.29-.08-.28-.28V9.68c0-.41,0-.41.42-.41s.55,0,.82,0,.31.09.3.32v2.95Z"/><path class="cls-5" d="M29.36,14.08v1.69h2.7c.2,0,.28.06.27.27s0,.66,0,1c0,.18-.07.25-.25.25h-4c-.17,0-.24-.07-.25-.23V9.65c0-.37,0-.38.38-.38H32c.31,0,.33,0,.33.33v.83c0,.35,0,.36-.35.36H29.37v1.75h2c.2,0,.29.07.28.28s0,.64,0,1-.08.3-.29.29h-2Z"/><path class="cls-6" d="M71.47,10.79v1.76h2c.2,0,.29.07.29.29s0,.57,0,.85,0,.39-.38.39H71.47v1.69h2.7c.19,0,.27.07.27.27s0,.65,0,1-.09.27-.28.27h-4c-.2,0-.27-.09-.27-.28,0-2.49,0-5,0-7.46,0-.21.08-.29.29-.29h4c.21,0,.29.08.29.29s0,.64,0,.95-.08.29-.29.29H71.47Z"/><path class="cls-6" d="M54.34,15.68c-.1.44-.21.86-.3,1.28,0,.24-.14.35-.4.33s-.55,0-.82,0-.31,0-.23-.31c.58-2.41,1.17-4.81,1.76-7.22.13-.54.06-.48.62-.48H56.1a.28.28,0,0,1,.31.23q.92,3.76,1.84,7.53c0,.21,0,.27-.21.27H57.1a.26.26,0,0,1-.29-.23c-.09-.39-.21-.78-.29-1.18,0-.15-.09-.21-.26-.21Zm1.77-1.34-.69-3h0l-.69,3Z"/><path class="cls-7" d="M33.45,13.28c0-.76,0-1.51,0-2.27a3.27,3.27,0,0,1,0-.54A1.24,1.24,0,0,1,34.6,9.33a12.75,12.75,0,0,1,2.14,0A1.32,1.32,0,0,1,38,10.67c0,.48,0,1,0,1.44,0,.17-.09.23-.24.23H36.8c-.18,0-.24-.08-.24-.25s0-.56,0-.84-.13-.48-.48-.48h-.75a.36.36,0,0,0-.39.4c0,1.42,0,2.84,0,4.25a.36.36,0,0,0,.39.4h.77c.31,0,.44-.12.46-.44s0-.59,0-.88.06-.3.28-.29h.89c.13,0,.25,0,.25.19,0,.52,0,1,0,1.57a1.3,1.3,0,0,1-1.28,1.28,9.58,9.58,0,0,1-1.93,0,1.37,1.37,0,0,1-1.3-1.52V13.28Z"/><path class="cls-5" d="M23.89,9.64H22.68c-.21,0-.3-.07-.29-.29s0-.65,0-1c0-.17.07-.24.25-.24h4.05c.16,0,.23.07.23.23v1c0,.2-.08.28-.27.28H25.43v7.28c0,.35,0,.36-.37.36s-.58,0-.87,0-.31-.09-.3-.32V9.64Z"/><path class="cls-8" d="M48.85,9.64H47.68c-.28,0-.32,0-.33-.32s0-.62,0-.93.06-.26.26-.26h4c.19,0,.25.08.25.26,0,.33,0,.65,0,1s-.08.27-.27.27H50.38v7.28c0,.36,0,.36-.36.36s-.59,0-.89,0-.3-.09-.28-.29V9.64Z"/><path class="cls-6" d="M66.38,15.77h2.11c.23,0,.32.08.31.31s0,.64,0,1-.07.26-.24.26H65.09c-.24,0-.25-.15-.25-.32V9.51c0-.17.07-.25.25-.25h1c.21,0,.27.1.26.29v6.22Z"/><path class="cls-9" d="M33.11,20.38l.11.32a.81.81,0,0,1-1,0,1,1,0,0,1-.13-1.08.75.75,0,0,1,.91-.36l.43.08.07-.47h.32v.44h.38v.35l-.38,0v.58c0,.27.07.31.31.22l.13-.05.11.31a.62.62,0,0,1-.65.1.53.53,0,0,1-.29-.52v-.63l-.59-.08a.34.34,0,0,0-.41.18.56.56,0,0,0,0,.6.35.35,0,0,0,.44.1Z"/><path class="cls-9" d="M63.28,19.2l.38.1h.05a.62.62,0,0,1,.72,0l.06-.48h.31v.43l.4,0v.33l-.39,0c0,.22,0,.44,0,.66s.11.22.27.16l.18-.07.1.31c-.52.32-.93.1-.94-.5v-.54a3.35,3.35,0,0,0-.37-.07.32.32,0,0,0-.37.33c0,.29,0,.58,0,.88h-.4Z"/><path class="cls-10" d="M56.05,19.78a1,1,0,1,1,2,0,1,1,0,1,1-2,0Zm1.56,0a.66.66,0,0,0-.57-.72.62.62,0,0,0-.58.7.64.64,0,0,0,.58.73C57.38,20.49,57.61,20.21,57.61,19.78Z"/><path class="cls-11" d="M36.84,21.3,37,21a4.7,4.7,0,0,0,.64,0c.07,0,.11-.17.21-.32l-.15,0a.65.65,0,0,1-.76-.18.92.92,0,0,1-.11-1,.7.7,0,0,1,.68-.42l.65.06c0,.53,0,1.08,0,1.61S37.42,21.66,36.84,21.3Zm.89-1.3c0-.38,0-.44-.27-.44s-.37.18-.37.45a.41.41,0,0,0,.37.45C37.68,20.46,37.73,20.37,37.73,20Z"/><path class="cls-12" d="M42.45,21.32l.11-.28a3.46,3.46,0,0,0,.64,0c.06,0,.11-.16.17-.27a1.89,1.89,0,0,1-.59,0,.78.78,0,0,1-.39-.37.82.82,0,0,1,.09-.91.67.67,0,0,1,.77-.26,2.35,2.35,0,0,0,.46,0c0,.57,0,1.12,0,1.67s-.52.7-1,.52ZM43.33,20c0-.39,0-.45-.26-.45s-.37.18-.37.45.15.45.36.45S43.33,20.37,43.33,20Z"/><path class="cls-13" d="M40.42,19.55c0,.07,0,.11,0,.16v.21h-.76v.53h.86v.36H39.26V18.74h1.28v.36h-.87v.45Z"/><path class="cls-12" d="M58.58,19.36c.38-.22.67-.21.91,0a1,1,0,0,1,.11,1.09c-.18.33-.45.42-.93.3v.64h-.39c0-.55,0-1.1,0-1.65a.41.41,0,0,0-.13-.25C58.19,19.17,58.24,19.15,58.58,19.36Zm.09.67c0,.36.07.46.29.47s.36-.19.36-.46-.14-.48-.36-.48S58.67,19.67,58.67,20Z"/><path class="cls-12" d="M59.8,19.53l.07-.27s0,0,.06,0a1.09,1.09,0,0,0,.71,0c.42-.1.8.36.77.87s-.42.85-1,.71v.64H60c0-.55,0-1.09,0-1.64a.77.77,0,0,0-.11-.27Zm.56.49c0,.37.07.49.31.48S61,20.29,61,20s-.14-.46-.36-.46S60.36,19.66,60.36,20Z"/><path class="cls-9" d="M31.86,20.21h-1c.13.33.28.36.77.18.18.32.16.37-.19.44a.77.77,0,0,1-.88-.28,1,1,0,0,1,0-1.08.69.69,0,0,1,.73-.25.62.62,0,0,1,.48.55A3.08,3.08,0,0,1,31.86,20.21Zm-.37-.35a.27.27,0,0,0-.3-.3.28.28,0,0,0-.3.3Z"/><path class="cls-9" d="M47.61,20.21h-.94c.12.32.24.35.8.19l.11.37a3.73,3.73,0,0,1-.72.07.6.6,0,0,1-.56-.46.93.93,0,0,1,.18-1,.66.66,0,0,1,.73-.16A.76.76,0,0,1,47.61,20.21Zm-1-.36h.61a.28.28,0,0,0-.31-.29A.29.29,0,0,0,46.66,19.85Z"/><path class="cls-9" d="M49.1,20.21h-.93c.12.33.28.36.79.17l.12.4a4.78,4.78,0,0,1-.73.06.6.6,0,0,1-.56-.46.93.93,0,0,1,.19-1,.65.65,0,0,1,.71-.17A.75.75,0,0,1,49.1,20.21Zm-.33-.35a.29.29,0,0,0-.31-.3.28.28,0,0,0-.3.3Z"/><path class="cls-11" d="M71.83,20.21h-1c.11.32.21.34.8.19l.08.31a.91.91,0,0,1-1.12-.08,1,1,0,0,1,0-1.12.69.69,0,0,1,.85-.26Q71.91,19.43,71.83,20.21Zm-.36-.35a.28.28,0,0,0-.32-.3.26.26,0,0,0-.27.3Z"/><path class="cls-14" d="M27.32,19.24a6.69,6.69,0,0,0,.77,0,.45.45,0,0,1,.53.46c0,.37,0,.74,0,1.14h-.38c0-.28,0-.57,0-.86s.05-.37-.22-.38a.37.37,0,0,0-.34.41v.83h-.37Z"/><path class="cls-14" d="M42.09,20.81h-.38c0-.31,0-.62,0-.93,0-.14,0-.31-.21-.31a.37.37,0,0,0-.35.33v.91h-.38V19.22l.37.05a.3.3,0,0,0,.16,0,.53.53,0,0,1,.79.48C42.11,20.09,42.09,20.44,42.09,20.81Z"/><path class="cls-9" d="M68.47,20.82h-.39c0-.31,0-.61,0-.91,0-.15,0-.33-.2-.34a.37.37,0,0,0-.36.37c0,.29,0,.57,0,.87h-.38v-1.6a2.74,2.74,0,0,0,.37.08.32.32,0,0,0,.16,0,.54.54,0,0,1,.8.52c0,.31,0,.62,0,.93Z"/><path class="cls-9" d="M30.25,20.81h-.37v-.9c0-.15,0-.33-.21-.34a.39.39,0,0,0-.36.35v.89h-.38v-1.6l.38.09a.49.49,0,0,0,.16-.05.54.54,0,0,1,.79.53c0,.32,0,.64,0,.95A.24.24,0,0,1,30.25,20.81Z"/><path class="cls-9" d="M35.16,19.24a6.61,6.61,0,0,0,.77,0,.47.47,0,0,1,.55.48c0,.37,0,.74,0,1.12H36.1V19.9c0-.15,0-.33-.21-.33a.37.37,0,0,0-.35.36c0,.29,0,.58,0,.88h-.37Z"/><path class="cls-9" d="M45.09,20.81h-.38V19.27c.27,0,.53-.06.79-.07a.48.48,0,0,1,.53.49c0,.37,0,.74,0,1.12h-.38c0-.31,0-.61,0-.9s0-.33-.21-.34a.37.37,0,0,0-.35.36C45.08,20.22,45.09,20.51,45.09,20.81Z"/><path class="cls-11" d="M26.33,20.86a.84.84,0,0,1,0-1.67.84.84,0,0,1,0,1.67Zm.38-.83a.42.42,0,0,0-.4-.46.39.39,0,0,0-.38.46.45.45,0,0,0,.39.47C26.55,20.5,26.71,20.31,26.71,20Z"/><path class="cls-15" d="M55.1,20a.77.77,0,0,1-.79.82.79.79,0,0,1-.77-.85.78.78,0,1,1,1.56,0Zm-.39,0a.42.42,0,0,0-.39-.47c-.24,0-.39.16-.38.45a.43.43,0,0,0,.38.48A.42.42,0,0,0,54.71,20Z"/><path class="cls-15" d="M61.51,20a.78.78,0,0,1,.79-.82.77.77,0,0,1,.77.82.78.78,0,0,1-.77.84A.79.79,0,0,1,61.51,20Zm1.17,0c0-.28-.16-.46-.39-.46s-.39.18-.39.46a.45.45,0,0,0,.4.47C62.53,20.5,62.68,20.31,62.68,20Z"/><path class="cls-11" d="M25.46,20.69a1,1,0,0,1-1.3-.14,1.34,1.34,0,0,1,0-1.53,1,1,0,0,1,1.26-.18l-.11.33c-.34-.11-.67-.21-.89.19a.91.91,0,0,0,.11,1c.17.18.43.19.8,0,0,0,.05.11.07.17A1.62,1.62,0,0,1,25.46,20.69Z"/><path class="cls-10" d="M65.84,19.25c0,.32,0,.63,0,.94,0,.15,0,.3.21.31a.29.29,0,0,0,.33-.32v-.93h.37c0,.41,0,.82.06,1.23,0,0,.08,0,.13.05l-.09.34-.37-.14a2.42,2.42,0,0,1-.5.12.48.48,0,0,1-.52-.48c0-.37,0-.74,0-1.12Z"/><path class="cls-11" d="M73,19.67c-.21-.08-.42-.21-.68,0a1.81,1.81,0,0,0,.3.16c.41.17.56.35.5.64s-.34.43-.74.39a3.47,3.47,0,0,1-.51-.15l.17-.33c.17,0,.32.1.48.13a.5.5,0,0,0,.21-.1,1.22,1.22,0,0,0-.15-.17,3.27,3.27,0,0,0-.33-.14.42.42,0,0,1-.27-.44.44.44,0,0,1,.35-.41.91.91,0,0,1,.78.1Z"/><path class="cls-11" d="M51.52,19.34l-.1.32c-.22-.05-.43-.22-.69,0l.4.18c.32.14.45.32.4.59a.52.52,0,0,1-.59.39,4.9,4.9,0,0,1-.67-.13l.17-.35a3.76,3.76,0,0,0,.54.12c.05,0,.1-.07.16-.11s-.07-.11-.12-.13-.25-.11-.37-.17a.42.42,0,0,1-.26-.43.45.45,0,0,1,.32-.41A1,1,0,0,1,51.52,19.34Z"/><path class="cls-13" d="M53.45,20.41l.11.3a.62.62,0,0,1-.65.1.53.53,0,0,1-.29-.52v-.62l-.25-.05V19.3l.25,0,.07-.44H53v.44h.39v.35l-.38,0v.59c0,.25.07.3.31.21Z"/><path class="cls-12" d="M70.28,19.64H69.9c0,.21,0,.41,0,.6s.07.3.31.21l.12-.05.12.31a.64.64,0,0,1-.67.09.55.55,0,0,1-.27-.55v-.6l-.24,0V19.3l.24,0,.07-.43h.31v.44h.38Z"/><path class="cls-15" d="M50.36,19.22l-.11.38c-.4,0-.51.1-.51.51,0,.22,0,.45,0,.7h-.38V19.2C49.68,19.37,50,19.16,50.36,19.22Z"/><path class="cls-16" d="M34.83,20.81h-.36V19.25h.36Z"/><path class="cls-16" d="M44,19.24h.36v1.57H44Z"/><path class="cls-16" d="M68.76,19.24h.37v1.57h-.37Z"/><path class="cls-9" d="M69.23,18.94c-.09.06-.2.18-.28.17a.37.37,0,0,1-.23-.24.19.19,0,0,1,.23-.23c.1,0,.19.12.28.18Z"/><path class="cls-9" d="M44.48,19c-.1.05-.21.17-.29.15a.39.39,0,0,1-.22-.25.2.2,0,0,1,.25-.22,1,1,0,0,1,.27.2Z"/><path class="cls-9" d="M34.93,19c-.1.06-.2.17-.28.16a.36.36,0,0,1-.23-.25.2.2,0,0,1,.24-.22,1.26,1.26,0,0,1,.28.19Z"/><path class="cls-17" d="M71.47,19.86h-.59a.26.26,0,0,1,.27-.3A.28.28,0,0,1,71.47,19.86Z"/></svg>