<svg id="Capa_1" enable-background="new 0 0 504.503 504.503" height="512" viewBox="0 0 504.503 504.503" width="512" xmlns="http://www.w3.org/2000/svg"><g><path d="m205.449 456.696v17.629c0 16.667 13.511 30.178 30.178 30.178h33.25c16.667 0 30.178-13.511 30.178-30.178v-17.629z" fill="#baafb9"/><path d="m252.255 7.501c-90.137-.002-163.134 72.623-163.57 162.76-.197 40.692 14.47 77.949 38.881 106.668 18.038 21.221 31.892 45.666 40.078 72.287l11.823 38.447-1.367 39.822 146.937-3.447v-36.375l11.269-36.645c8.311-27.026 21.892-52.189 40.277-73.672 24.462-28.585 39.239-65.703 39.239-106.276-.001-90.335-73.232-163.567-163.567-163.569z" fill="#99e6fc"/><path d="m331.998 387.664h-159.492c-4.379 0-7.93 3.55-7.93 7.93v48.796c0 16.533 13.403 29.936 29.936 29.936h115.48c16.533 0 29.936-13.403 29.936-29.936v-48.796c-.001-4.38-3.551-7.93-7.93-7.93z" fill="#f3f0f3"/><path d="m214.943 350.83c-8.25-26.827-21.634-51.881-39.938-73.158-24.792-28.818-39.716-66.368-39.517-107.412.398-82.18 61.135-149.807 140.163-161.103-7.636-1.093-15.457-1.656-23.395-1.656-90.138-.002-163.135 72.623-163.571 162.76-.199 41.044 14.725 78.594 39.517 107.412 18.304 21.276 31.689 46.331 39.938 73.157l11.327 36.833-1.367 39.822 30.967-.727 115.97-2.72v-36.375l6.15-20h-93.456c-10.468.001-19.711-6.827-22.788-16.833z" fill="#62dbfb"/><g><g><path d="m252.252 464.196c-4.142 0-7.5-3.358-7.5-7.5v-263.784c0-4.142 3.358-7.5 7.5-7.5s7.5 3.358 7.5 7.5v263.784c0 4.142-3.358 7.5-7.5 7.5z" fill="#f3f0f3"/></g></g><circle cx="252.252" cy="171.07" fill="#fef056" r="109.735"/><path d="m205.449 171.07c0-49.668 33.001-91.621 78.269-105.148-9.969-2.979-20.529-4.587-31.466-4.587-60.605 0-109.735 49.13-109.735 109.735s49.13 109.735 109.735 109.735c10.937 0 21.497-1.608 31.466-4.587-45.269-13.527-78.269-55.48-78.269-105.148z" fill="#fee903"/><g><g><path d="m252.252 258.305c-41.06 0-76.968-29.16-85.381-69.337-.849-4.054 1.75-8.029 5.804-8.878 4.053-.847 8.03 1.75 8.878 5.804 6.966 33.266 36.699 57.411 70.699 57.411s63.733-24.145 70.699-57.411c.849-4.054 4.828-6.649 8.878-5.804 4.054.849 6.653 4.824 5.804 8.878-8.414 40.177-44.321 69.337-85.381 69.337z" fill="#a79ba7"/></g><g id="XMLID_510_"><g><path d="m330.49 430.994s-132.988-.714-133.703 0c-.714.714-32.145 15.409-32.145 15.409 1.03 15.59 14.02 27.92 29.87 27.92h115.48c15.85 0 28.84-12.33 29.87-27.92z" fill="#efedef"/><path d="m259.752 367.664h-15v58.258l15-.352z" fill="#e5e1e5"/><path d="m332.002 387.663h-159.5c-4.38 0-7.93 3.55-7.93 7.93v23.14l15.818 12.261h146.316l13.226-12.261v-23.14c0-4.38-3.55-7.93-7.93-7.93z" fill="#efedef"/><path d="m200.293 446.403c-.027-.354-.045-8.291-.056-15.573-2.16.043-3.383.098-3.45.165-.714.714-32.145 15.409-32.145 15.409 1.03 15.59 14.02 27.92 29.87 27.92h35.651c-15.85-.001-28.84-12.331-29.87-27.921z" fill="#e5e1e5"/><path d="m200.223 418.733v-23.14c0-4.38 3.55-7.93 7.93-7.93h-35.651c-4.38 0-7.93 3.55-7.93 7.93v23.14l15.818 12.261h19.848c-.011-6.355-.015-12.26-.015-12.261z" fill="#e5e1e5"/><path d="m339.932 418.733s-.02 27.01-.07 27.67h-175.22c-.05-.66-.07-27.67-.07-27.67z" fill="#d7d0d6"/></g></g><g><g><path d="m107.264 340.502c-1.782 0-3.57-.631-5.002-1.914-47.585-42.633-74.875-103.691-74.875-167.518 0-13.806 1.274-27.679 3.787-41.234.755-4.072 4.667-6.761 8.742-6.007 4.073.755 6.762 4.669 6.007 8.742-2.346 12.655-3.536 25.609-3.536 38.5 0 59.568 25.472 116.555 69.884 156.346 3.085 2.764 3.345 7.506.581 10.591-1.481 1.653-3.53 2.494-5.588 2.494z" fill="#fef056"/></g><g><path d="m397.24 340.502c-2.058 0-4.107-.842-5.588-2.495-2.764-3.085-2.504-7.827.581-10.591 44.413-39.792 69.884-96.778 69.884-156.346 0-12.891-1.189-25.845-3.536-38.5-.755-4.073 1.935-7.986 6.007-8.742 4.075-.754 7.987 1.935 8.742 6.007 2.513 13.555 3.787 27.428 3.787 41.234 0 63.827-27.291 124.885-74.875 167.518-1.432 1.284-3.221 1.915-5.002 1.915z" fill="#fef056"/></g></g><g><path d="m209.067 153.818c-4.142 0-7.5-3.358-7.5-7.5v-15.115c0-4.142 3.358-7.5 7.5-7.5s7.5 3.358 7.5 7.5v15.115c0 4.142-3.358 7.5-7.5 7.5z" fill="#a79ba7"/></g><g><path d="m296.437 153.818c-4.142 0-7.5-3.358-7.5-7.5v-15.115c0-4.142 3.358-7.5 7.5-7.5s7.5 3.358 7.5 7.5v15.115c0 4.142-3.358 7.5-7.5 7.5z" fill="#a79ba7"/></g><g><path d="m394.529 30.805c-1.325 0-2.667-.351-3.883-1.089-3.542-2.148-4.67-6.761-2.522-10.302l9.587-15.803c2.148-3.542 6.761-4.671 10.302-2.522 3.542 2.148 4.67 6.761 2.522 10.302l-9.587 15.803c-1.41 2.326-3.884 3.611-6.419 3.611z" fill="#fef056"/></g><g><path d="m426.732 67.165c-2.537 0-5.011-1.286-6.421-3.614-2.147-3.542-1.016-8.154 2.527-10.301l17.576-10.652c3.543-2.147 8.155-1.016 10.301 2.527 2.147 3.542 1.016 8.154-2.527 10.301l-17.576 10.652c-1.215.736-2.556 1.087-3.88 1.087z" fill="#fef056"/></g><g><path d="m109.982 30.805c-2.535 0-5.009-1.285-6.419-3.611l-9.587-15.803c-2.148-3.542-1.02-8.154 2.522-10.302 3.542-2.15 8.155-1.019 10.302 2.522l9.587 15.803c2.148 3.542 1.02 8.154-2.522 10.302-1.216.738-2.559 1.089-3.883 1.089z" fill="#fef056"/></g><g><path d="m77.779 67.165c-1.324 0-2.665-.351-3.88-1.087l-17.577-10.653c-3.542-2.147-4.674-6.759-2.527-10.301s6.758-4.673 10.301-2.527l17.576 10.652c3.542 2.147 4.674 6.759 2.527 10.301-1.41 2.328-3.884 3.615-6.42 3.615z" fill="#fef056"/></g></g></g><path d="m200.223 418.733h-35.651s.02 27.01.07 27.67h35.651c-.05-.66-.07-27.668-.07-27.67z" fill="#baafb9"/></svg>